<?xml version="1.0" standalone="no"?>
<!DOCTYPE svg PUBLIC "-//W3C//DTD SVG 20010904//EN"
 "http://www.w3.org/TR/2001/REC-SVG-20010904/DTD/svg10.dtd">
<svg version="1.0" xmlns="http://www.w3.org/2000/svg"
 width="1024.000000pt" height="1024.000000pt" viewBox="0 0 1024.000000 1024.000000"
 preserveAspectRatio="xMidYMid meet">

<g transform="translate(0.000000,1024.000000) scale(0.100000,-0.100000)"
fill="#000000" stroke="none">
<path d="M5015 7960 c-314 -29 -689 -173 -950 -363 -208 -152 -384 -336 -513
-537 -34 -52 -68 -105 -77 -117 -16 -23 -16 -23 -314 -23 -293 0 -299 0 -331
-22 -55 -38 -75 -73 -75 -133 0 -58 18 -91 68 -129 26 -19 42 -20 852 -18 895
2 851 -1 905 57 22 23 25 36 25 95 0 63 -3 72 -30 101 -45 47 -82 59 -187 59
-90 0 -92 1 -68 17 24 16 49 36 136 111 72 62 393 203 493 217 175 25 306 27
481 10 51 -4 122 -23 200 -50 19 -7 53 -18 75 -25 56 -18 209 -91 213 -101 2
-5 9 -9 16 -9 7 0 22 -8 34 -17 12 -10 31 -26 44 -36 61 -47 108 -87 165 -143
35 -33 63 -59 63 -57 0 13 -113 130 -172 178 -255 210 -523 304 -864 305 -344
0 -662 -124 -933 -364 l-53 -47 -157 5 c-86 3 -160 5 -164 6 -5 0 8 24 29 53
165 228 425 418 724 530 260 97 496 125 757 92 371 -48 676 -194 935 -447 120
-118 157 -164 239 -296 91 -147 162 -313 194 -452 15 -63 31 -135 37 -160 6
-25 11 -139 12 -255 1 -164 -3 -234 -18 -322 -10 -61 -22 -116 -25 -122 -4 -6
-62 -10 -146 -10 -77 0 -153 -1 -170 -1 -16 0 -46 -2 -66 -6 -33 -5 -37 -3
-43 19 -3 14 -6 98 -6 188 0 100 -5 193 -14 239 -8 41 -15 68 -15 59 -1 -13
-9 -15 -46 -9 -25 4 -48 10 -52 13 -3 4 -13 1 -21 -6 -13 -10 -14 -8 -7 13 4
14 4 22 0 17 -5 -4 -19 23 -31 59 -55 156 -163 283 -298 349 l-76 38 0 126 c0
111 -3 132 -24 176 -12 28 -38 65 -57 83 -69 68 -61 67 -414 70 -219 2 -332 0
-358 -8 -49 -14 -125 -83 -148 -135 -15 -33 -19 -66 -19 -182 0 -108 -3 -143
-12 -143 -28 0 -140 -61 -181 -99 l-44 -41 -732 0 c-705 0 -733 -1 -770 -19
-21 -11 -52 -36 -69 -56 -27 -30 -32 -44 -32 -85 0 -41 5 -55 32 -86 58 -66
35 -64 697 -64 511 0 600 -2 595 -14 -4 -9 11 -23 43 -40 l49 -27 -1 -84 0
-85 -844 0 c-834 0 -845 0 -887 -21 -54 -25 -84 -72 -84 -129 0 -57 25 -105
69 -132 l36 -23 835 -6 c459 -3 845 -9 858 -13 12 -5 22 -14 22 -22 0 -18 76
-68 89 -59 6 3 11 1 11 -5 0 -7 11 -21 25 -32 14 -11 25 -26 25 -34 0 -8 12
-19 27 -25 16 -6 35 -17 43 -24 8 -7 29 -21 45 -29 28 -15 -18 -16 -555 -17
-1120 -1 -1182 -2 -1218 -25 -86 -54 -107 -146 -52 -221 17 -23 44 -46 62 -52
20 -7 150 -11 368 -11 l337 0 29 -42 c166 -247 274 -368 445 -496 236 -176
415 -255 799 -352 112 -28 145 -32 320 -37 279 -8 412 8 675 82 179 50 436
176 570 279 82 63 211 175 251 218 50 52 157 192 205 268 75 117 87 137 123
215 21 44 44 91 51 105 7 14 20 50 30 80 10 30 21 60 25 65 4 6 15 42 24 80
10 39 26 95 36 125 9 30 23 100 29 155 7 55 17 116 22 135 12 43 6 312 -9 430
-41 307 -149 608 -305 854 -286 450 -764 764 -1307 857 -132 22 -414 32 -555
19z m533 -1343 l3 -98 -126 7 c-69 4 -125 4 -125 0 0 -3 52 -82 116 -174 64
-92 132 -196 151 -231 18 -35 37 -69 42 -75 5 -6 7 -21 5 -34 -3 -16 0 -21 8
-16 6 4 8 3 5 -3 -3 -5 1 -47 9 -94 12 -69 13 -100 3 -174 -13 -104 -19 -118
-98 -223 -102 -135 -178 -172 -357 -172 -109 0 -162 13 -226 56 -21 13 -38 22
-38 19 0 -8 57 -85 61 -82 2 1 3 0 2 -2 -2 -2 2 -10 8 -18 8 -9 8 -13 0 -13
-23 0 -130 118 -159 177 -55 107 -62 242 -19 345 28 67 89 152 166 233 155
161 178 192 199 257 26 80 35 147 26 193 l-6 36 -99 -7 -99 -7 0 102 0 101
273 -2 272 -3 3 -98z m-568 -1268 c0 -6 -4 -7 -10 -4 -5 3 -10 11 -10 16 0 6
5 7 10 4 6 -3 10 -11 10 -16z m90 -89 c0 -5 -7 -7 -15 -4 -8 4 -15 8 -15 10 0
2 7 4 15 4 8 0 15 -4 15 -10z m168 -47 c-10 -2 -26 -2 -35 0 -10 3 -2 5 17 5
19 0 27 -2 18 -5z m79 1 c-3 -3 -12 -4 -19 -1 -8 3 -5 6 6 6 11 1 17 -2 13 -5z
m811 -294 c24 0 11 -25 -22 -45 -19 -11 -81 -47 -137 -79 -169 -99 -317 -145
-586 -185 -150 -23 -380 -8 -548 35 -88 22 -259 90 -345 136 -83 45 -85 42 -7
-14 127 -92 229 -141 397 -193 47 -14 99 -30 116 -35 17 -6 38 -10 48 -10 29
0 76 -33 76 -52 0 -11 7 -18 20 -18 11 0 20 -4 20 -10 0 -5 -4 -10 -10 -10 -5
0 -10 -9 -10 -20 0 -15 7 -20 25 -20 15 0 25 -6 25 -14 0 -42 -294 -11 -480
50 -94 31 -240 99 -326 150 -132 80 -314 234 -314 267 0 25 39 66 68 69 15 2
466 2 1002 0 536 -1 981 -2 988 -2z"/>
<path d="M5505 6002 c0 -59 -3 -122 -8 -141 -4 -19 -4 -32 -1 -28 16 16 31
154 24 210 -5 33 -10 61 -12 62 -2 2 -3 -45 -3 -103z"/>
<path d="M3347 3454 c-211 -51 -365 -220 -403 -441 -15 -85 -15 -101 1 -190
35 -209 184 -377 379 -429 68 -18 218 -18 290 1 82 22 162 63 190 99 19 26 25
50 33 146 6 63 10 138 8 165 -1 28 -2 70 -3 94 -2 35 -9 50 -37 78 l-34 34
-157 -3 -156 -3 -28 -32 c-40 -44 -47 -92 -23 -140 25 -50 72 -73 146 -73 l57
0 0 -34 c0 -104 -183 -112 -295 -14 -122 107 -126 273 -11 391 73 76 169 100
265 67 73 -26 102 -19 151 37 25 28 30 42 30 83 0 41 -5 55 -32 85 -73 83
-222 115 -371 79z"/>
<path d="M5127 3460 c-95 -24 -181 -85 -222 -158 -71 -124 -71 -253 0 -361 47
-70 115 -112 255 -154 105 -32 130 -49 130 -86 0 -30 -23 -51 -69 -66 -24 -7
-101 20 -101 36 0 5 -14 16 -32 25 -39 20 -96 14 -138 -16 -28 -20 -30 -26
-30 -83 0 -77 21 -122 75 -159 61 -41 120 -58 206 -58 140 0 258 65 312 171
23 47 27 66 27 141 0 69 -4 95 -20 123 -11 19 -20 37 -20 40 0 3 -6 21 -14 39
-27 64 -83 93 -277 146 -87 24 -116 86 -63 135 37 34 80 32 135 -5 51 -35 91
-38 136 -10 53 32 69 68 65 143 -3 39 -72 110 -133 137 -58 24 -165 34 -222
20z"/>
<path d="M5940 3454 c-203 -54 -360 -229 -389 -434 -12 -87 7 -245 38 -312 11
-26 21 -51 21 -56 0 -13 69 -101 110 -141 50 -48 105 -81 180 -108 154 -54
415 -10 505 86 29 31 30 35 29 129 -1 279 -7 328 -46 369 -21 22 -27 23 -165
23 -160 0 -191 -9 -218 -60 -24 -47 -19 -101 13 -138 23 -28 37 -35 97 -45 76
-12 85 -18 85 -59 0 -42 -39 -63 -116 -60 -244 7 -354 304 -172 467 49 44 119
75 169 75 16 0 53 -9 83 -20 67 -26 95 -20 147 30 33 31 39 43 39 79 0 57 -21
94 -74 130 -83 58 -220 76 -336 45z"/>
<path d="M6858 3454 c-179 -43 -310 -169 -373 -359 -25 -73 -27 -90 -23 -200
4 -108 8 -127 36 -188 35 -77 52 -101 124 -174 126 -130 312 -181 496 -138
135 32 244 113 339 252 53 78 78 214 63 339 -18 144 -64 238 -162 335 -126
125 -322 177 -500 133z m249 -310 c132 -77 167 -271 70 -389 -64 -78 -200
-108 -292 -66 -45 20 -99 72 -122 116 -21 39 -29 153 -14 198 23 67 104 143
181 168 42 14 131 0 177 -27z"/>
<path d="M4305 3441 c-42 -25 -50 -39 -155 -271 -50 -113 -100 -224 -111 -247
-10 -24 -27 -62 -38 -85 -10 -24 -34 -77 -53 -118 -20 -41 -39 -86 -43 -100
-4 -14 -12 -31 -17 -37 -6 -7 -11 -37 -12 -67 -1 -47 3 -59 28 -85 42 -44 79
-56 125 -43 48 15 71 41 116 130 l36 72 197 0 197 0 32 -67 c39 -83 71 -119
120 -132 71 -20 153 41 153 115 0 13 -4 25 -9 28 -4 3 -11 25 -15 48 -4 24
-15 61 -25 83 -10 22 -38 83 -61 135 -53 121 -58 131 -125 273 -30 64 -55 119
-55 122 0 6 -54 127 -83 184 -12 24 -35 52 -52 62 -39 25 -111 25 -150 0z m96
-421 c6 -31 39 -108 69 -162 9 -17 2 -18 -90 -18 l-100 0 19 38 c10 20 29 70
42 110 26 81 49 93 60 32z"/>
</g>
</svg>
